<?xml version="1.0" encoding="UTF-8"?>
<svg xmlns="http://www.w3.org/2000/svg" id="Capa_2" data-name="Capa 2" viewBox="0 0 510.23 335.35">
  <g id="Layer_1" data-name="Layer 1">
    <g>
      <path d="m151.26,230.4c5.05,0,9.27-1.68,12.76-5.12,3.43-3.44,5.15-7.77,5.15-12.75s-1.79-8.89-5.41-12.51c-3.62-3.59-7.79-5.43-12.49-5.43l-3.38.06c-3.47-.06-6.43-1.27-8.82-3.66-2.46-2.48-3.69-5.49-3.69-9.09l.08-115.6c0-5.02-1.69-9.26-5.15-12.75-3.44-3.44-7.74-5.16-12.73-5.16s-8.9,1.8-12.51,5.41c-3.59,3.62-5.44,7.78-5.44,12.5v115.6c0,12.94,5,25.1,14.03,34.24l.08.07.07.07c9.08,9.07,21.17,14.04,34.07,14.11h0s3.38.01,3.38.01Z"></path>
      <path d="m107.96,5.14c-3.48-3.46-7.71-5.14-12.75-5.14h-46.94c-12.9.07-25,5.08-34.08,14.13l-.07.08-.08.07C4.98,23.43,0,35.58,0,48.51v163.85c0,4.71,1.84,8.87,5.44,12.49,3.62,3.61,7.74,5.41,12.5,5.41s9.31-1.72,12.73-5.16c3.46-3.47,5.15-7.71,5.15-12.74v-92.34h30.15c4.71,0,8.88-1.83,12.5-5.42,3.59-3.62,5.41-7.74,5.41-12.5s-1.72-9.29-5.18-12.75c-3.47-3.46-7.71-5.14-12.73-5.14h-30.15l-.08-35.7c0-3.58,1.22-6.58,3.68-9.09,2.42-2.38,5.38-3.61,8.85-3.65v.04h46.94c4.71,0,8.87-1.83,12.48-5.42,3.61-3.62,5.42-7.75,5.42-12.51s-1.46-8.59-4.39-11.88c-.23-.29-.48-.58-.76-.85Z"></path>
      <path d="m255.3,216.06l.06-.08c9.07-9.14,14.06-21.3,14.06-34.23v-84.76c0-13.05-5.05-25.28-14.24-34.41-6.01-6.02-13.43-10.21-21.5-12.38-4.12-1.11-8.39-1.73-12.76-1.73-13,0-25.18,5.03-34.31,14.13l-.09.08-.08.07c-5.37,5.42-9.26,11.92-11.58,19-1.61,4.85-2.45,9.97-2.45,15.24v84.76c0,13.04,5.06,25.26,14.22,34.39,5.64,5.65,12.45,9.69,19.94,11.98,4.57,1.4,9.4,2.13,14.34,2.13,3.15,0,6.27-.3,9.29-.89,9.42-1.79,18.1-6.35,25.02-13.23l.08-.07Zm-21.63-115.79v81.48c0,3.58-1.24,6.59-3.69,9.07-2.46,2.45-5.51,3.68-9.08,3.68s-6.61-1.23-9.06-3.68c-2.49-2.48-3.72-5.49-3.72-9.07v-84.76c0-3.58,1.25-6.61,3.7-9.09,2.46-2.45,5.5-3.69,9.08-3.69s6.6,1.24,9.05,3.69c2.49,2.48,3.72,5.51,3.72,9.09v3.28Z"></path>
      <path d="m504.79,5.64c-3.62-3.59-7.74-5.4-12.5-5.4s-9.29,1.72-12.74,5.16c-3.47,3.48-5.15,7.72-5.15,12.73v32.07c-4.1-1.11-8.39-1.73-12.76-1.73-12.98,0-25.18,5.03-34.32,14.13l-.07.08-.08.07c-9.05,9.14-14.03,21.3-14.03,34.24v84.76c0,13.04,5.05,25.26,14.24,34.39,9.09,9.09,21.29,14.11,34.27,14.11s25.18-5.02,34.31-14.13l.08-.07.07-.08c9.06-9.14,14.04-21.3,14.04-34.23v-81.48h.08V18.15c0-4.71-1.83-8.87-5.44-12.5Zm-30.39,94.63v81.48c0,3.58-1.22,6.59-3.67,9.07-2.48,2.45-5.51,3.68-9.09,3.68s-6.59-1.23-9.06-3.68c-2.49-2.48-3.72-5.49-3.72-9.07v-84.76c0-3.58,1.24-6.61,3.69-9.09,2.48-2.45,5.51-3.69,9.09-3.69s6.59,1.24,9.06,3.69c2.49,2.48,3.7,5.51,3.7,9.09v3.28Z"></path>
      <path d="m372.44,48.48c-4.98,0-9.3,1.73-12.73,5.18-3.47,3.48-5.13,7.71-5.13,12.74v32.59s.07,82.77.07,82.77c0,3.58-1.24,6.59-3.69,9.07-2.34,2.33-5.2,3.53-8.55,3.65h-.65s-.68,0-.68,0c-3.34-.12-6.19-1.32-8.55-3.65-2.45-2.48-3.68-5.49-3.68-9.07l.07-115.36c0-5.03-1.68-9.25-5.13-12.74-3.43-3.44-7.75-5.18-12.74-5.18s-8.89,1.82-12.51,5.41c-3.58,3.63-5.42,7.79-5.42,12.5v115.36c0,12.93,4.99,25.09,14.03,34.23l.1.08.08.07c6.69,6.71,15.09,11.18,24.22,13.08,6.41,2.05,11.06,8.03,11.06,15.12,0,3.46-1.12,6.65-2.99,9.25l-37.91,41.8c-2.41,2.64-5.35,4.03-8.84,4.23-2.59.11-4.91-.48-7.04-1.79l-2.33-2.04c-2.55-2.37-3.91-5.26-4.09-8.66-.15-3.48.96-6.55,3.36-9.2l14.32-15.41c3.37-3.73,4.98-7.99,4.76-12.9-.25-4.86-2.29-9.03-5.98-12.38-3.52-3.21-7.79-4.64-12.9-4.39-5.1.26-9.25,2.11-12.41,5.59l-14.26,15.48c-8.68,9.57-13.16,21.92-12.59,34.78v.11s.01.11.01.11c.47,9.69,3.81,18.83,9.54,26.48.98,1.87,2.32,3.59,4.02,5.15l2.49,2.27h.01c9.6,8.63,21.88,13.08,34.69,12.49h.22c12.85-.66,24.71-6.29,33.43-15.86,0,0,29.26-32.16,30.23-33.32,23.1-27.41,32.01-46.95,32.01-111.88v-107.85c0-4.71-1.83-8.87-5.44-12.5-3.61-3.59-7.74-5.41-12.5-5.41Z"></path>
    </g>
  </g>
</svg>
